<svg version="1.1" id="svg3756" xmlns="http://www.w3.org/2000/svg" x="0px" y="0px" viewBox="0 0 416.4 173.4" style="enable-background:new 0 0 416.4 173.4" xml:space="preserve"><style>.st1{fill-rule:evenodd;clip-rule:evenodd;fill:#FFFFFF}.st2{fill:#FFFFFF}</style><g id="layer1" transform="translate(-198.80641,-470.3806)"><path id="path14" d="M198.8,643.8h416.4V470.4H198.8L198.8,643.8L198.8,643.8z" style="fill:#806B64"/></g><g id="g500"><path id="path508" class="st1" d="M44.3,160.4l0.4,1.6h1.1v-6.7h-5.6v1.4h4.1 c0.4,4.9-7.2,5.6-8.2,1c-0.9-3,0.4-7.5,4.1-7.4c1.8,0,3.5,0.9,3.8,2.8h1.7c-0.8-5.9-10.1-5.4-11.2,0.1 C32.1,159.3,39.4,165.6,44.3,160.4"/><path id="path512" class="st1" d="M54.5,152.7v9.3H56c0.1-2.7-1-8.2,3.4-7.9v-1.6 c-1.7,0-2.7,0.7-3.4,2.2h0v-2H54.5z"/><path id="path516" class="st1" d="M66.1,157.3c-0.3,6.4,9.3,6.4,9,0 C75.5,150.9,65.8,150.9,66.1,157.3 M67.7,157.3c-0.2-4.6,5.9-4.6,5.8,0C73.7,161.9,67.5,161.9,67.7,157.3"/><path id="path520" class="st1" d="M91,162v-9.3h-1.5c-0.1,0.9,0.2,5.6-0.2,6.4 c-0.4,1.6-2.8,2.3-3.9,1.2c-1-0.7-0.3-6.6-0.5-7.6h-1.5c0.2,1.8-0.6,7.1,0.7,8.5c1.4,1.5,4.6,1.2,5.5-0.7h0v1.5H91z"/><path id="path524" class="st1" d="M107,157.2c0.3,4.7-5.9,4.8-5.7,0.1 C101.1,152.7,107.1,152.7,107,157.2 M99.8,152.7v12.8h1.5v-4.8h0c2.5,3.3,7.7,0.5,7.2-3.4c0.5-3.9-4.8-6.9-7.2-3.4h0v-1.3 C101.3,152.7,99.8,152.7,99.8,152.7z"/><path id="path528" class="st1" d="M124.8,159h-1.5c-0.7,3.2-5.8,1.8-5.3-1.2h6.9 c0.6-6.7-8.5-7.2-8.6-0.5C115.8,162.4,123.7,164.3,124.8,159 M123.3,156.4H118C118.1,153,123.1,153,123.3,156.4"/><path id="path532" class="st1" d="M146.3,160.5v-4.4c1.9,0.2,6.7-1,6.7,2.1 C153.2,161.5,148.2,160.3,146.3,160.5z M144.6,149.1V162c1.3-0.1,6.8,0.3,7.9-0.3c2.9-1,3.1-5.9-0.2-6.5v0c2.4-0.8,2.5-4.4,0.4-5.5 C150.6,148.8,146.7,149.3,144.6,149.1z M146.3,154.7v-4.1c1.8,0.3,6.2-1,6.1,2C152.5,155.5,148.1,154.4,146.3,154.7z"/><path id="path536" class="st1" d="M168.8,157.2v1.6c0.1,2.7-5.9,2.9-4.4-0.2 C165.5,157.3,167.5,158,168.8,157.2 M171.3,161.9v-1.2c-0.8,0.3-1-0.1-1-1c-0.1-1,0.3-5.3-0.3-6.1c-1.8-2.3-7.2-1.5-7.1,1.9h1.5 c0-1.9,2.3-2,3.7-1.5c1.5,1.1,0.4,2.5-1.3,2.5c-8.2,0.4-3.3,9.1,2,4.2C168.7,162.2,170.4,162.4,171.3,161.9"/><path id="path540" class="st1" d="M179.1,152.7v9.3h1.5c0.1-2.7-1-8.2,3.4-7.9v-1.6 c-1.7,0-2.7,0.7-3.4,2.2h0v-2H179.1z"/><path id="path542" class="st1" d="M191.6,162h1.5v-9.3h-1.5C191.6,152.7,191.6,162,191.6,162z M193.2,149.1h-1.5v1.9h1.5V149.1z"/><path id="path546" class="st1" d="M210.2,162v-12.8h-1.5v4.8h0c-2.5-3.3-7.7-0.6-7.2,3.4 c-0.5,3.9,4.8,6.8,7.2,3.4h0v1.3H210.2z M203.1,157.4c-0.3-4.7,5.9-4.8,5.7-0.1C209,161.9,202.9,162,203.1,157.4"/><path id="path550" class="st1" d="M234.2,149.1l-5,12.8h1.7l1.4-3.9h5.4l1.4,3.9h1.9l-5-12.8 H234.2z M232.9,156.7l2.2-6h0l2.1,6C237.3,156.7,232.9,156.7,232.9,156.7z"/><path id="path552" class="st1" d="M248.6,162h1.5v-12.8h-1.5V162z"/><path id="path556" class="st1" d="M270.6,149.1V162h1.6v-10.7h0l4,10.7h1.5l4-10.7h0V162h1.6 v-12.8h-2.3l-4,10.8l-4-10.8H270.6z"/><path id="path560" class="st1" d="M298.2,157.2v1.6c0.1,2.7-5.9,2.9-4.4-0.2 C294.8,157.3,296.9,158,298.2,157.2 M300.6,161.9v-1.2c-0.8,0.3-1-0.1-0.9-1c-0.1-1,0.3-5.3-0.3-6.1c-1.8-2.3-7.2-1.5-7.1,1.9h1.5 c0-1.9,2.3-2,3.7-1.5c1.5,1.1,0.4,2.5-1.3,2.5c-8.2,0.4-3.3,9.1,2,4.2C298.1,162.2,299.7,162.4,300.6,161.9"/><path id="path564" class="st1" d="M312.2,160.7c-3.6,0-3.5-7,0.1-6.9 C316,153.8,315.8,160.8,312.2,160.7 M316.5,161.2v-8.5h-1.4v1.3h0c-2.3-3.6-7.6-0.4-7,3.4c-0.5,3.8,4.9,6.7,7,3h0 c0,1.4-0.1,3.2-1.5,3.8c-1.1,0.5-3.5,0.3-3.7-1.2h-1.5c0,2,2.2,2.8,3.8,2.7C315.2,165.7,316.5,164.2,316.5,161.2"/><path id="path568" class="st1" d="M325.2,149.1V162h1.5c0.1-0.9-0.2-5.6,0.2-6.4 c0.4-1.6,2.7-2.3,4-1.3c1,0.7,0.3,6.6,0.5,7.6h1.5c-0.2-1.8,0.6-7.1-0.7-8.5c-1.3-1.5-4.5-1.3-5.4,0.6h0v-4.9H325.2z"/><path id="path572" class="st1" d="M341.6,152.7v9.3h1.5c0.1-2.7-1-8.2,3.4-7.9v-1.6 c-1.7,0-2.7,0.7-3.4,2.2h0v-2H341.6z"/><path id="path574" class="st1" d="M354.1,162h1.5v-9.3h-1.5C354.1,152.7,354.1,162,354.1,162z M355.7,149.1h-1.5v1.9h1.5V149.1z"/><path id="path578" class="st1" d="M371.7,157.2c0.3,4.7-5.9,4.8-5.7,0.1 C365.8,152.7,371.8,152.7,371.7,157.2 M364.5,149.1V162h1.5v-1.2h0c2.5,3.3,7.7,0.5,7.2-3.4c0.5-3.9-4.8-6.9-7.2-3.4h0v-4.8H364.5z"/><path id="path582" class="st2" d="M36.8,111.4h5.4l-2.6-7L36.8,111.4z M38.8,103.1h1.5l5.3,13.6 h-1.4l-1.7-4.2h-6.2l-1.6,4.2h-1.4L38.8,103.1z"/><path id="path586" class="st2" d="M49.3,103.1h1.3v12.5h7.6v1.1h-8.9V103.1z"/><path id="path590" class="st2" d="M71.3,115.6c2.5-0.3,8.1,1.2,8-2.8c0.2-3.5-5.7-2.5-8-2.6 V115.6z M71.3,109.1c2.1-0.1,7.7,0.8,7.5-2.3c0.3-3.6-5.3-2.4-7.5-2.6V109.1z M70,103.1h5.8c4.4-0.5,6.3,4.9,2,6.4v0 c4.1,0.7,4.3,7.3-2,7.2c0,0-5.8,0-5.8,0V103.1z"/><path id="path594" class="st2" d="M87.1,111.4h5.4l-2.6-7L87.1,111.4z M89.1,103.1h1.5l5.3,13.6 h-1.4l-1.7-4.2h-6.2l-1.6,4.2h-1.4C83.6,116.7,89.1,103.1,89.1,103.1z"/><path id="path598" class="st2" d="M101.2,109.6c2.3-0.2,7.8,1.1,7.8-2.7c0.3-3.8-5.5-2.5-7.8-2.7 V109.6z M99.9,103.1h6.2c4.4-0.5,5.9,6,1.5,7v0c3.4,0.3,1.7,4.6,3,6.6h-1.4c-0.3-0.5-0.3-1.5-0.4-2.1c-0.1-1.9-0.3-4-2.7-3.9h-4.9 v6h-1.3C99.9,116.7,99.9,103.1,99.9,103.1z"/><path id="path600" class="st2" d="M115.5,103.1h1.3v13.6h-1.3V103.1z"/><path id="path604" class="st2" d="M123.3,115.6c4.5,0.2,8.6,0,8.4-5.7c0.2-5.7-3.9-5.9-8.4-5.7 V115.6z M122.1,103.1c5.4-0.2,11.1-0.5,11,6.8c0.1,7.3-5.6,7-11,6.8C122.1,116.7,122.1,103.1,122.1,103.1z"/><path id="path608" class="st2" d="M149.5,113.9c1.4-0.2,4.8,0.7,4.7-1.5c0.1-2.4-3.3-1.4-4.7-1.6 V113.9z M149.5,108.5c1.2-0.2,4.1,0.7,4.2-1.3c0-2.1-3-1.1-4.2-1.3V108.5z M146,103.1h6.4c2.3,0,4.9,0.6,4.9,3.4 c0,1.2-0.7,2.2-1.8,2.7c1.5,0.4,2.4,1.7,2.4,3.2c0,3.2-2.4,4.2-5.3,4.2H146C146,116.7,146,103.1,146,103.1z"/><path id="path612" class="st2" d="M166.8,111.7h3.1l-1.5-4.8h0L166.8,111.7z M166.5,103.1h3.6 l5.1,13.6h-3.7l-0.8-2.4H166l-0.9,2.4h-3.6C161.5,116.7,166.5,103.1,166.5,103.1z"/><path id="path616" class="st2" d="M179.7,103.1h3.6l4.7,8.4h0v-8.4h3.3v13.6h-3.6l-4.7-8.5h0v8.5 h-3.3V103.1z"/><path id="path620" class="st2" d="M197,103.1h3.6v5.2l4.5-5.2h4.4l-5,5.4l5.7,8.3h-4.4L202,111 l-1.4,1.5v4.2H197V103.1z"/><polygon class="st2" points="86.6,62.5 81.8,59.3 78.2,61.8 83.1,65"/><path class="st2" d="M45.5,66.1c-0.9,0.7-1.5,1.8-1.7,3c2.4-2,4.6-2.6,7.9-2.9l1.1-2.5c-2.5,0.7-5.8,0.4-7.5-1 c1.3-1.1,3.7-1.1,5.4-0.6c1.1-1.6,2.4-2.8-0.9-2.8C46.6,58.8,40,64.8,45.5,66.1z"/><polygon class="st2" points="101.5,82.7 98,85.2 102.8,88.4 106.4,85.9"/><path class="st2" d="M103.6,66l-4.3,4.4c1.1,0.8,1.9,2,2.5,3.5h-8.1h-2.1h-4.9l-2.1-5.6L80,71.6l0.9,2.2h-7.2h-2.1h-4.2 c-1,0-1.5-0.3-1.5-1V56l-5.9,4.9v13H42.9c-5.1,0.4-8.4-1.5-6.5-7.1c-4,3.8-6.1,11.9,1,12.7c0,0,21.4,0,21.4,0l1.2-1.4 c0.2,0.9,1,1.4,2.6,1.4h9c0,0,1.4,0,2.1,0c2.5,0,7,0,7,0l1.7-1.7l0.7,1.7h8.5h2.1h9.6C106.1,75.2,108.2,69.7,103.6,66z"/><g><path class="st2" d="M154.7,79.4c0.3-0.6,0.5-0.9,0.6-1c1.9-4.8,2.6-6.1-0.9-9.2l-1.8,1.9c1.7,2.1,2.2,3.8,1.8,5.7h-7h-4.3h-3 l-7.3-9.6l-1.7,2l5.8,7.6h-9.7c-1.7-0.1-2.8,0.1-3.4-1.1c-1.8,2.3-1,3.9,1.9,3.7c0,0,11.2,0,11.2,0l1.2-1.1l0.7,1.1h4.3h4.3H154.7 z"/><polygon class="st2" points="171,83.8 173.4,85.6 175.5,84.3 173.2,82.3"/><path class="st2" d="M206.4,60.7l0.9-0.9l-0.9-3.9l-3.4,3.2c1.3,3.1,0.9,5.6,1.1,7.5c0.2,4.5,0.5,9.5-0.4,14.1 c3.2-4.2,3.7-8,3.3-13.1C207,65,206.7,63.2,206.4,60.7z"/><path class="st2" d="M193.4,56l-1.7,2.4c-0.8,0.9-0.8,1.6,0.8,1.9l1.8,16.6h-8.2h-4.3h-1.7c-0.8,0-1.2-0.3-1.2-1V69l-2.9,1.9v2.9 h-9.1c-0.4-0.6-0.8-1.1-1.3-1.5l-2.1,1.8c1.6,1.5,2.7,3.2,3.4,5.2c-2.8,5.4-6.8,7.4-11.7,5.9l0.5-0.3l-2.4-1.9l-2.2,1.4l-1.8-1.4 l-2,1.4l2.3,1.8l2.2-1.3l1.7,1.3l1.4-0.9c2.4,1.8,4.1,2.8,5.1,2.8c4.8-1,9.5-7.4,8-11.7l0,0.1l0-0.1h6.6L176,75 c-0.1,2-0.1,4.6,2.6,4.4c0,0,1.6,0,3.3,0h4.3h8.8c0.6-1.4,1.9-4.2,1.7-5.4c0,0-1.1-12.9-1.1-12.9l1.2,0.3l1.5-2.6 C196.9,58.3,193.2,57.6,193.4,56z"/></g><path id="path632" class="st2" d="M323.1,34.4c9.5-0.2,9.4-14.5-0.1-14.6 C313.6,20,313.6,34.2,323.1,34.4 M248.2,25.3c10,27.8,32.1,47.1,32.1,47.1s-1.2,17.9-31.9,46.8c52-17.2,105.3-56.9,121-107.5 C295,79.6,248.2,25.3,248.2,25.3"/><path id="path636" d="M323.1,62.1c9.6-0.2,9.5-14.7-0.1-14.8 C313.4,47.5,313.5,61.9,323.1,62.1 M262.4,51.9C276.8,78.8,303.6,92,303.6,92s-2.6,10.4-47.1,49.6c90-27.3,107.6-65,120.2-103.8 C309.9,100.6,262.4,51.9,262.4,51.9" style="fill:#FFD42D"/></g></svg>